<?xml version="1.0" encoding="utf-8"?>
<!-- Generator: Adobe Illustrator 21.0.0, SVG Export Plug-In . SVG Version: 6.00 Build 0)  -->
<svg version="1.1" baseProfile="tiny" id="Layer_1" xmlns="http://www.w3.org/2000/svg" xmlns:xlink="http://www.w3.org/1999/xlink"
	 x="0px" y="0px" viewBox="0 0 455 120" width="455px" height="120px" xml:space="preserve">
<g>

		<rect x="365.124" y="49.031" fill="#FFFFFF" stroke="#868686" stroke-width="1.5" stroke-miterlimit="10" width="76.062" height="21.938"/>

		<rect x="365.124" y="81.365" fill="#FFFFFF" stroke="#868686" stroke-width="1.5" stroke-miterlimit="10" width="76.062" height="21.938"/>

		<rect x="365.124" y="16.698" fill="#FFFFFF" stroke="#868686" stroke-width="1.5" stroke-miterlimit="10" width="76.062" height="21.938"/>
	<line fill="none" stroke="#868686" stroke-width="1.5" stroke-miterlimit="10" x1="88.957" y1="60.167" x2="364.957" y2="60.167"/>
	<polyline fill="none" stroke="#868686" stroke-width="1.5" stroke-miterlimit="10" points="365.153,28.667 263.153,28.667
		263.153,92 365.153,92 	"/>

		<rect x="13.814" y="49.031" transform="matrix(-1 4.491151e-11 -4.491151e-11 -1 103.6904 120)" fill="#FFFFFF" stroke="#868686" stroke-width="1.5" stroke-miterlimit="10" width="76.062" height="21.938"/>

		<rect x="13.814" y="81.365" transform="matrix(-1 4.488753e-11 -4.488753e-11 -1 103.6904 184.6667)" fill="#FFFFFF" stroke="#868686" stroke-width="1.5" stroke-miterlimit="10" width="76.062" height="21.938"/>

		<rect x="13.814" y="16.698" transform="matrix(-1 4.491151e-11 -4.491151e-11 -1 103.6904 55.3333)" fill="#FFFFFF" stroke="#868686" stroke-width="1.5" stroke-miterlimit="10" width="76.062" height="21.938"/>
	<polyline fill="none" stroke="#868686" stroke-width="1.5" stroke-miterlimit="10" points="89.847,28.667 191.847,28.667
		191.847,92 89.847,92 	"/>
</g>
</svg>
