<svg xmlns="http://www.w3.org/2000/svg" width="365.5" height="396.7"><defs><linearGradient id="a" x1=".2" y1=".1" x2="1" y2=".6" gradientUnits="objectBoundingBox"><stop offset=".1" stop-color="#7a25ba"/><stop offset=".5" stop-color="#5bccef"/></linearGradient></defs><g data-name="Group 3"><path data-name="Path 1" d="M280 396.3a.7.7 0 10.3-1 .7.7 0 00-.3 1z" fill="#7740a4"/><path data-name="Path 2" d="M287.6 379.9a.7.7 0 10.3-1 .7.7 0 00-.3 1z" fill="#7740a4"/><path data-name="Path 3" d="M263.5 388.6a.7.7 0 10.3-1 .7.7 0 00-.3 1z" fill="#7740a4"/><path data-name="Path 4" d="M271.1 372.2a.7.7 0 10.4-1 .7.7 0 00-.4 1z" fill="#7740a4"/><path data-name="Path 5" d="M247 381a.7.7 0 10.3-1 .7.7 0 00-.3 1z" fill="#7740a4"/><path data-name="Path 6" d="M254.7 364.5a.7.7 0 10.3-1 .7.7 0 00-.3 1z" fill="#7740a4"/><path data-name="Path 7" d="M230.6 373.2a.7.7 0 10.3-1 .7.7 0 00-.3 1z" fill="#7740a4"/><path data-name="Path 8" d="M238.2 356.8a.7.7 0 10.3-1 .7.7 0 00-.3 1z" fill="#7740a4"/><path data-name="Path 9" d="M214.1 365.6a.7.7 0 10.3-1 .7.7 0 00-.3 1z" fill="#7740a4"/><path data-name="Path 10" d="M221.8 349.2a.7.7 0 10.3-1 .7.7 0 00-.3 1z" fill="#7740a4"/><path data-name="Path 11" d="M197.6 357.9a.7.7 0 10.3-1 .7.7 0 00-.3 1z" fill="#7740a4"/><path data-name="Path 12" d="M205.3 341.5a.7.7 0 10.3-1 .7.7 0 00-.3 1z" fill="#7740a4"/><path data-name="Path 13" d="M181.2 350.2a.7.7 0 10.3-1 .7.7 0 00-.3 1z" fill="#7740a4"/><path data-name="Path 14" d="M188.8 333.8a.7.7 0 10.3-1 .7.7 0 00-.3 1z" fill="#7740a4"/><path data-name="Path 15" d="M164.7 342.5a.7.7 0 10.3-1 .7.7 0 00-.3 1z" fill="#7740a4"/><path data-name="Path 16" d="M172.4 326.1a.7.7 0 10.3-1 .7.7 0 00-.3 1z" fill="#7740a4"/><path data-name="Path 17" d="M148.2 334.9a.7.7 0 10.4-1 .7.7 0 00-.4 1z" fill="#7740a4"/><path data-name="Path 18" d="M155.9 318.5a.7.7 0 10.3-1 .7.7 0 00-.3 1z" fill="#7740a4"/><path data-name="Path 19" d="M131.8 327.2a.7.7 0 10.3-1 .7.7 0 00-.3 1z" fill="#7740a4"/><path data-name="Path 20" d="M139.4 310.8a.7.7 0 10.4-1 .7.7 0 00-.4 1z" fill="#7740a4"/><path data-name="Path 21" d="M115.3 319.5a.7.7 0 10.3-1 .7.7 0 00-.3 1z" fill="#7740a4"/><path data-name="Path 22" d="M123 303.1a.7.7 0 10.3-1 .7.7 0 00-.3 1z" fill="#7740a4"/><path data-name="Path 23" d="M98.9 311.9a.7.7 0 10.3-1 .7.7 0 00-.3 1z" fill="#7740a4"/><path data-name="Path 24" d="M106.5 295.4a.7.7 0 10.3-1 .7.7 0 00-.3 1z" fill="#7740a4"/><path data-name="Path 25" d="M82.4 304.2a.7.7 0 10.3-1 .7.7 0 00-.3 1z" fill="#7740a4"/><path data-name="Path 26" d="M90 287.8a.7.7 0 10.4-1 .7.7 0 00-.3 1z" fill="#7740a4"/><path data-name="Path 27" d="M66 296.5a.7.7 0 10.2-1 .7.7 0 00-.3 1z" fill="#7740a4"/><path data-name="Path 28" d="M73.6 280a.7.7 0 10.3-.9.7.7 0 00-.3 1z" fill="#7740a4"/><path data-name="Path 29" d="M49.5 288.8a.7.7 0 10.3-1 .7.7 0 00-.3 1z" fill="#7740a4"/><path data-name="Path 30" d="M57.1 272.4a.7.7 0 10.3-1 .7.7 0 00-.3 1z" fill="#7740a4"/><path data-name="Path 31" d="M33 281.2a.7.7 0 10.3-1 .7.7 0 00-.3 1z" fill="#7740a4"/><path data-name="Path 32" d="M40.7 264.7a.7.7 0 10.3-1 .7.7 0 00-.3 1z" fill="#7740a4"/><path data-name="Path 33" d="M16.5 273.5a.7.7 0 10.4-1 .7.7 0 00-.4 1z" fill="#7740a4"/><path data-name="Path 34" d="M24.2 257a.7.7 0 10.3-.9.7.7 0 00-.3 1z" fill="#7740a4"/><path data-name="Path 35" d="M0 265.8a.7.7 0 10.4-1 .7.7 0 00-.3 1z" fill="#7740a4"/><path data-name="Path 36" d="M7.7 249.4a.7.7 0 10.3-1 .7.7 0 00-.3 1z" fill="#7740a4"/><path data-name="Path 37" d="M295.3 363.4a.7.7 0 10.3-1 .7.7 0 00-.3 1z" fill="#7740a4"/><path data-name="Path 38" d="M278.8 355.8a.7.7 0 10.3-1 .7.7 0 00-.3 1z" fill="#7740a4"/><path data-name="Path 39" d="M262.3 348.1a.7.7 0 10.3-1 .7.7 0 00-.3 1z" fill="#7740a4"/><path data-name="Path 40" d="M245.9 340.4a.7.7 0 10.3-1 .7.7 0 00-.3 1z" fill="#7740a4"/><path data-name="Path 41" d="M229.4 332.8a.7.7 0 10.3-1 .7.7 0 00-.3 1z" fill="#7740a4"/><path data-name="Path 42" d="M213 325a.7.7 0 10.3-.9.7.7 0 00-.4 1z" fill="#7740a4"/><path data-name="Path 43" d="M196.5 317.4a.7.7 0 10.3-1 .7.7 0 00-.3 1z" fill="#7740a4"/><path data-name="Path 44" d="M180 309.7a.7.7 0 10.3-1 .7.7 0 00-.3 1z" fill="#7740a4"/><path data-name="Path 45" d="M163.6 302a.7.7 0 10.3-1 .7.7 0 00-.3 1z" fill="#7740a4"/><path data-name="Path 46" d="M147 294.4a.7.7 0 10.4-1 .7.7 0 00-.3 1z" fill="#7740a4"/><path data-name="Path 47" d="M130.6 286.7a.7.7 0 10.3-1 .7.7 0 00-.3 1z" fill="#7740a4"/><path data-name="Path 48" d="M114.2 279a.7.7 0 10.3-1 .7.7 0 00-.3 1z" fill="#7740a4"/><path data-name="Path 49" d="M97.7 271.4a.7.7 0 10.3-1 .7.7 0 00-.3 1z" fill="#7740a4"/><path data-name="Path 50" d="M81.2 263.7a.7.7 0 10.4-1 .7.7 0 00-.4 1z" fill="#7740a4"/><path data-name="Path 51" d="M64.8 256a.7.7 0 10.3-1 .7.7 0 00-.3 1z" fill="#7740a4"/><path data-name="Path 52" d="M48.3 248.3a.7.7 0 10.3-1 .7.7 0 00-.3 1z" fill="#7740a4"/><path data-name="Path 53" d="M31.9 240.7a.7.7 0 10.3-1 .7.7 0 00-.3 1z" fill="#7740a4"/><path data-name="Path 54" d="M15.4 233a.7.7 0 10.3-1 .7.7 0 00-.3 1z" fill="#7740a4"/><path data-name="Path 55" d="M303 347a.7.7 0 10.2-1 .7.7 0 00-.3 1z" fill="#7740a4"/><path data-name="Path 56" d="M286.5 339.4a.7.7 0 10.3-1 .7.7 0 00-.3 1z" fill="#7740a4"/><path data-name="Path 57" d="M270 331.7a.7.7 0 10.3-1 .7.7 0 00-.3 1z" fill="#7740a4"/><path data-name="Path 58" d="M253.5 324a.7.7 0 10.3-1 .7.7 0 00-.3 1z" fill="#7740a4"/><path data-name="Path 59" d="M237 316.3a.7.7 0 10.4-1 .7.7 0 00-.3 1z" fill="#7740a4"/><path data-name="Path 60" d="M220.6 308.7a.7.7 0 10.3-1 .7.7 0 00-.3 1z" fill="#7740a4"/><path data-name="Path 61" d="M204.1 301a.7.7 0 10.3-1 .7.7 0 00-.3 1z" fill="#7740a4"/><path data-name="Path 62" d="M187.7 293.3a.7.7 0 10.3-1 .7.7 0 00-.3 1z" fill="#7740a4"/><path data-name="Path 63" d="M171.2 285.6a.7.7 0 10.3-1 .7.7 0 00-.3 1z" fill="#7740a4"/><path data-name="Path 64" d="M154.8 278a.7.7 0 10.3-1 .7.7 0 00-.3 1z" fill="#7740a4"/><path data-name="Path 65" d="M138.3 270.3a.7.7 0 10.3-1 .7.7 0 00-.3 1z" fill="#7740a4"/><path data-name="Path 66" d="M121.8 262.6a.7.7 0 10.3-1 .7.7 0 00-.3 1z" fill="#7740a4"/><path data-name="Path 67" d="M105.4 255a.7.7 0 10.3-1 .7.7 0 00-.3 1z" fill="#7740a4"/><path data-name="Path 68" d="M88.9 247.3a.7.7 0 10.3-1 .7.7 0 00-.3 1z" fill="#7740a4"/><path data-name="Path 69" d="M72.4 239.6a.7.7 0 10.3-1 .7.7 0 00-.3 1z" fill="#7740a4"/><path data-name="Path 70" d="M56 232a.7.7 0 10.3-1 .7.7 0 00-.3 1z" fill="#7740a4"/><path data-name="Path 71" d="M39.5 224.3a.7.7 0 10.3-1 .7.7 0 00-.3 1z" fill="#7740a4"/><path data-name="Path 72" d="M23 216.6a.7.7 0 10.4-1 .7.7 0 00-.4 1z" fill="#7740a4"/><path data-name="Path 73" d="M310.6 330.6a.7.7 0 10.3-1 .7.7 0 00-.3 1z" fill="#7740a4"/><path data-name="Path 74" d="M294.1 323a.7.7 0 10.3-1 .7.7 0 00-.3 1z" fill="#7740a4"/><path data-name="Path 75" d="M277.6 315.3a.7.7 0 10.4-1 .7.7 0 00-.4 1z" fill="#7740a4"/><path data-name="Path 76" d="M261.2 307.6a.7.7 0 10.3-1 .7.7 0 00-.3 1z" fill="#7740a4"/><path data-name="Path 77" d="M244.7 300a.7.7 0 10.3-1 .7.7 0 00-.3 1z" fill="#7740a4"/><path data-name="Path 78" d="M228.3 292.3a.7.7 0 10.3-1 .7.7 0 00-.3 1z" fill="#7740a4"/><path data-name="Path 79" d="M211.8 284.6a.7.7 0 10.3-1 .7.7 0 00-.3 1z" fill="#7740a4"/><path data-name="Path 80" d="M195.3 277a.7.7 0 10.3-1 .7.7 0 00-.3 1z" fill="#7740a4"/><path data-name="Path 81" d="M178.9 269.2a.7.7 0 10.3-1 .7.7 0 00-.3 1z" fill="#7740a4"/><path data-name="Path 82" d="M162.4 261.6a.7.7 0 10.3-1 .7.7 0 00-.3 1z" fill="#7740a4"/><path data-name="Path 83" d="M146 253.9a.7.7 0 10.3-1 .7.7 0 00-.4 1z" fill="#7740a4"/><path data-name="Path 84" d="M129.5 246.2a.7.7 0 10.3-1 .7.7 0 00-.3 1z" fill="#7740a4"/><path data-name="Path 85" d="M113 238.5a.7.7 0 10.3-1 .7.7 0 00-.3 1z" fill="#7740a4"/><path data-name="Path 86" d="M96.6 230.9a.7.7 0 10.3-1 .7.7 0 00-.3 1z" fill="#7740a4"/><path data-name="Path 87" d="M80 223.2a.7.7 0 10.4-1 .7.7 0 00-.3 1z" fill="#7740a4"/><path data-name="Path 88" d="M63.6 215.5a.7.7 0 10.3-1 .7.7 0 00-.3 1z" fill="#7740a4"/><path data-name="Path 89" d="M47.2 207.8a.7.7 0 10.3-1 .7.7 0 00-.3 1z" fill="#7740a4"/><path data-name="Path 90" d="M30.7 200.2a.7.7 0 10.3-1 .7.7 0 00-.3 1z" fill="#7740a4"/><path data-name="Path 91" d="M318.2 314.2a.7.7 0 10.3-1 .7.7 0 00-.3 1z" fill="#7740a4"/><path data-name="Path 92" d="M301.8 306.5a.7.7 0 10.3-1 .7.7 0 00-.3 1z" fill="#7740a4"/><path data-name="Path 93" d="M285.3 298.9a.7.7 0 10.3-1 .7.7 0 00-.3 1z" fill="#7740a4"/><path data-name="Path 94" d="M268.8 291.2a.7.7 0 10.3-1 .7.7 0 00-.3 1z" fill="#7740a4"/><path data-name="Path 95" d="M252.4 283.5a.7.7 0 10.3-1 .7.7 0 00-.3 1z" fill="#7740a4"/><path data-name="Path 96" d="M236 275.8a.7.7 0 10.2-1 .7.7 0 00-.3 1z" fill="#7740a4"/><path data-name="Path 97" d="M219.5 268.2a.7.7 0 10.3-1 .7.7 0 00-.3 1z" fill="#7740a4"/><path data-name="Path 98" d="M203 260.5a.7.7 0 10.3-1 .7.7 0 00-.3 1z" fill="#7740a4"/><path data-name="Path 99" d="M186.5 252.8a.7.7 0 10.3-1 .7.7 0 00-.3 1z" fill="#7740a4"/><path data-name="Path 100" d="M170 245.2a.7.7 0 10.4-1 .7.7 0 00-.3 1z" fill="#7740a4"/><path data-name="Path 101" d="M153.6 237.5a.7.7 0 10.3-1 .7.7 0 00-.3 1z" fill="#7740a4"/><path data-name="Path 102" d="M137.1 229.8a.7.7 0 10.3-1 .7.7 0 00-.3 1z" fill="#7740a4"/><path data-name="Path 103" d="M120.7 222.1a.7.7 0 10.3-1 .7.7 0 00-.3 1z" fill="#7740a4"/><path data-name="Path 104" d="M104.2 214.5a.7.7 0 10.3-1 .7.7 0 00-.3 1z" fill="#7740a4"/><path data-name="Path 105" d="M87.7 206.8a.7.7 0 10.4-1 .7.7 0 00-.4 1z" fill="#7740a4"/><path data-name="Path 106" d="M71.3 199.1a.7.7 0 10.3-1 .7.7 0 00-.3 1z" fill="#7740a4"/><path data-name="Path 107" d="M54.8 191.4a.7.7 0 10.3-1 .7.7 0 00-.3 1z" fill="#7740a4"/><path data-name="Path 108" d="M38.4 183.8a.7.7 0 10.3-1 .7.7 0 00-.3 1z" fill="#7740a4"/><path data-name="Path 109" d="M325.9 297.8a.7.7 0 10.3-1 .7.7 0 00-.3 1z" fill="#7740a4"/><path data-name="Path 110" d="M309.4 290.1a.7.7 0 10.3-1 .7.7 0 00-.3 1z" fill="#7740a4"/><path data-name="Path 111" d="M293 282.5a.7.7 0 10.3-1 .7.7 0 00-.3 1z" fill="#7740a4"/><path data-name="Path 112" d="M276.7 275a.7.7 0 10.3-.9.7.7 0 00-.3 1z" fill="#7740a4"/><path data-name="Path 113" d="M260 267.1a.7.7 0 10.3-1 .7.7 0 00-.3 1z" fill="#7740a4"/><path data-name="Path 114" d="M243.6 259.4a.7.7 0 10.3-1 .7.7 0 00-.3 1z" fill="#7740a4"/><path data-name="Path 115" d="M227.1 251.8a.7.7 0 10.3-1 .7.7 0 00-.3 1z" fill="#7740a4"/><path data-name="Path 116" d="M210.6 244a.7.7 0 10.4-.9.7.7 0 00-.4 1z" fill="#7740a4"/><path data-name="Path 117" d="M194.2 236.4a.7.7 0 10.3-1 .7.7 0 00-.3 1z" fill="#7740a4"/><path data-name="Path 118" d="M177.7 228.7a.7.7 0 10.3-1 .7.7 0 00-.3 1z" fill="#7740a4"/><path data-name="Path 119" d="M161.3 221a.7.7 0 10.3-.9.7.7 0 00-.3 1z" fill="#7740a4"/><path data-name="Path 120" d="M144.8 213.4a.7.7 0 10.3-1 .7.7 0 00-.3 1z" fill="#7740a4"/><path data-name="Path 121" d="M128.3 205.7a.7.7 0 10.3-1 .7.7 0 00-.3 1z" fill="#7740a4"/><path data-name="Path 122" d="M111.9 198a.7.7 0 10.3-1 .7.7 0 00-.3 1z" fill="#7740a4"/><path data-name="Path 123" d="M95.4 190.4a.7.7 0 10.3-1 .7.7 0 00-.3 1z" fill="#7740a4"/><path data-name="Path 124" d="M79 182.7a.7.7 0 10.2-1 .7.7 0 00-.3 1z" fill="#7740a4"/><path data-name="Path 125" d="M62.5 175a.7.7 0 10.3-1 .7.7 0 00-.3 1z" fill="#7740a4"/><path data-name="Path 126" d="M46 167.3a.7.7 0 10.3-1 .7.7 0 00-.3 1z" fill="#7740a4"/><path data-name="Path 127" d="M333.5 281.4a.7.7 0 10.3-1 .7.7 0 00-.3 1z" fill="#7740a4"/><path data-name="Path 128" d="M317 273.7a.7.7 0 10.4-1 .7.7 0 00-.3 1z" fill="#7740a4"/><path data-name="Path 129" d="M300.6 266a.7.7 0 10.3-1 .7.7 0 00-.3 1z" fill="#7740a4"/><path data-name="Path 130" d="M284.1 258.4a.7.7 0 10.4-1 .7.7 0 00-.4 1z" fill="#7740a4"/><path data-name="Path 131" d="M267.7 250.7a.7.7 0 10.3-1 .7.7 0 00-.3 1z" fill="#7740a4"/><path data-name="Path 132" d="M251.2 243a.7.7 0 10.3-1 .7.7 0 00-.3 1z" fill="#7740a4"/><path data-name="Path 133" d="M234.8 235.4a.7.7 0 10.3-1 .7.7 0 00-.3 1z" fill="#7740a4"/><path data-name="Path 134" d="M218.3 227.7a.7.7 0 10.3-1 .7.7 0 00-.3 1z" fill="#7740a4"/><path data-name="Path 135" d="M201.8 220a.7.7 0 10.3-1 .7.7 0 00-.3 1z" fill="#7740a4"/><path data-name="Path 136" d="M185.4 212.3a.7.7 0 10.3-1 .7.7 0 00-.3 1z" fill="#7740a4"/><path data-name="Path 137" d="M168.9 204.7a.7.7 0 10.3-1 .7.7 0 00-.3 1z" fill="#7740a4"/><path data-name="Path 138" d="M152.4 197a.7.7 0 10.4-1 .7.7 0 00-.4 1z" fill="#7740a4"/><path data-name="Path 139" d="M136 189.3a.7.7 0 10.3-1 .7.7 0 00-.3 1z" fill="#7740a4"/><path data-name="Path 140" d="M119.5 181.6a.7.7 0 10.3-1 .7.7 0 00-.3 1z" fill="#7740a4"/><path data-name="Path 141" d="M103 174a.7.7 0 10.4-1 .7.7 0 00-.3 1z" fill="#7740a4"/><path data-name="Path 142" d="M86.6 166.3a.7.7 0 10.3-1 .7.7 0 00-.3 1z" fill="#7740a4"/><path data-name="Path 143" d="M70.1 158.6a.7.7 0 10.3-1 .7.7 0 00-.3 1z" fill="#7740a4"/><path data-name="Path 144" d="M53.7 151a.7.7 0 10.3-1 .7.7 0 00-.3 1z" fill="#7740a4"/><path data-name="Path 145" d="M341.2 265a.7.7 0 10.3-1 .7.7 0 00-.3 1z" fill="#7740a4"/><path data-name="Path 146" d="M324.7 257.3a.7.7 0 10.3-1 .7.7 0 00-.3 1z" fill="#7740a4"/><path data-name="Path 147" d="M308.3 249.6a.7.7 0 10.3-1 .7.7 0 00-.3 1z" fill="#7740a4"/><path data-name="Path 148" d="M291.8 242a.7.7 0 10.3-1 .7.7 0 00-.3 1z" fill="#7740a4"/><path data-name="Path 149" d="M275.3 234.3a.7.7 0 10.4-1 .7.7 0 00-.4 1z" fill="#7740a4"/><path data-name="Path 150" d="M258.9 226.6a.7.7 0 10.3-1 .7.7 0 00-.3 1z" fill="#7740a4"/><path data-name="Path 151" d="M242.4 219a.7.7 0 10.3-1 .7.7 0 00-.3 1z" fill="#7740a4"/><path data-name="Path 152" d="M226 211.3a.7.7 0 10.3-1 .7.7 0 00-.3 1z" fill="#7740a4"/><path data-name="Path 153" d="M209.5 203.6a.7.7 0 10.3-1 .7.7 0 00-.3 1z" fill="#7740a4"/><path data-name="Path 154" d="M193 196a.7.7 0 10.3-1 .7.7 0 00-.3 1z" fill="#7740a4"/><path data-name="Path 155" d="M176.6 188.2a.7.7 0 10.3-1 .7.7 0 00-.3 1z" fill="#7740a4"/><path data-name="Path 156" d="M160 180.6a.7.7 0 10.4-1 .7.7 0 00-.3 1z" fill="#7740a4"/><path data-name="Path 157" d="M143.6 172.9a.7.7 0 10.3-1 .7.7 0 00-.3 1z" fill="#7740a4"/><path data-name="Path 158" d="M127.2 165.2a.7.7 0 10.3-1 .7.7 0 00-.3 1z" fill="#7740a4"/><path data-name="Path 159" d="M110.7 157.6a.7.7 0 10.3-1 .7.7 0 00-.3 1z" fill="#7740a4"/><path data-name="Path 160" d="M94.2 149.9a.7.7 0 10.4-1 .7.7 0 00-.4 1z" fill="#7740a4"/><path data-name="Path 161" d="M77.8 142.2a.7.7 0 10.3-1 .7.7 0 00-.3 1z" fill="#7740a4"/><path data-name="Path 162" d="M61.3 134.5a.7.7 0 10.3-1 .7.7 0 00-.3 1z" fill="#7740a4"/><path data-name="Path 163" d="M348.8 248.6a.7.7 0 10.4-1 .7.7 0 00-.4 1z" fill="#7740a4"/><path data-name="Path 164" d="M332 241a.7.7 0 10.3-1 .7.7 0 00-.3 1z" fill="#7740a4"/><path data-name="Path 165" d="M315.7 233.1a.7.7 0 10.3-1 .7.7 0 00-.3 1z" fill="#7740a4"/><path data-name="Path 166" d="M299.5 225.6a.7.7 0 10.3-1 .7.7 0 00-.3 1z" fill="#7740a4"/><path data-name="Path 167" d="M283 217.9a.7.7 0 10.3-1 .7.7 0 00-.3 1z" fill="#7740a4"/><path data-name="Path 168" d="M266.5 210.2a.7.7 0 10.3-1 .7.7 0 00-.3 1z" fill="#7740a4"/><path data-name="Path 169" d="M250 202.5a.7.7 0 10.4-1 .7.7 0 00-.3 1z" fill="#7740a4"/><path data-name="Path 170" d="M233.6 194.9a.7.7 0 10.3-1 .7.7 0 00-.3 1z" fill="#7740a4"/><path data-name="Path 171" d="M217.1 187.2a.7.7 0 10.4-1 .7.7 0 00-.4 1z" fill="#7740a4"/><path data-name="Path 172" d="M200.7 179.5a.7.7 0 10.3-1 .7.7 0 00-.3 1z" fill="#7740a4"/><path data-name="Path 173" d="M184.2 171.8a.7.7 0 10.3-1 .7.7 0 00-.3 1z" fill="#7740a4"/><path data-name="Path 174" d="M167.8 164.2a.7.7 0 10.3-1 .7.7 0 00-.3 1z" fill="#7740a4"/><path data-name="Path 175" d="M151.3 156.5a.7.7 0 10.3-1 .7.7 0 00-.3 1z" fill="#7740a4"/><path data-name="Path 176" d="M134.8 148.8a.7.7 0 10.3-1 .7.7 0 00-.3 1z" fill="#7740a4"/><path data-name="Path 177" d="M118.4 141.1a.7.7 0 10.3-1 .7.7 0 00-.3 1z" fill="#7740a4"/><path data-name="Path 178" d="M101.9 133.5a.7.7 0 10.3-1 .7.7 0 00-.3 1z" fill="#7740a4"/><path data-name="Path 179" d="M85.4 125.8a.7.7 0 10.4-1 .7.7 0 00-.4 1z" fill="#7740a4"/><path data-name="Path 180" d="M69 118.1a.7.7 0 10.3-1 .7.7 0 00-.3 1z" fill="#7740a4"/><path data-name="Path 181" d="M356.5 232.2a.7.7 0 10.3-1 .7.7 0 00-.3 1z" fill="#7740a4"/><path data-name="Path 182" d="M340 224.5a.7.7 0 10.3-1 .7.7 0 00-.3 1z" fill="#7740a4"/><path data-name="Path 183" d="M323.6 216.8a.7.7 0 10.3-1 .7.7 0 00-.3 1z" fill="#7740a4"/><path data-name="Path 184" d="M307.1 209.1a.7.7 0 10.3-1 .7.7 0 00-.3 1z" fill="#7740a4"/><path data-name="Path 185" d="M290.7 201.5a.7.7 0 10.3-1 .7.7 0 00-.3 1z" fill="#7740a4"/><path data-name="Path 186" d="M274.2 193.8a.7.7 0 10.3-1 .7.7 0 00-.3 1z" fill="#7740a4"/><path data-name="Path 187" d="M257.7 186.1a.7.7 0 10.3-1 .7.7 0 00-.3 1z" fill="#7740a4"/><path data-name="Path 188" d="M241.3 178.4a.7.7 0 10.3-1 .7.7 0 00-.3 1z" fill="#7740a4"/><path data-name="Path 189" d="M224.8 170.8a.7.7 0 10.3-1 .7.7 0 00-.3 1z" fill="#7740a4"/><path data-name="Path 190" d="M208.3 163.1a.7.7 0 10.3-1 .7.7 0 00-.3 1z" fill="#7740a4"/><path data-name="Path 191" d="M191.9 155.4a.7.7 0 10.3-1 .7.7 0 00-.3 1z" fill="#7740a4"/><path data-name="Path 192" d="M175.4 147.8a.7.7 0 10.3-1 .7.7 0 00-.3 1z" fill="#7740a4"/><path data-name="Path 193" d="M159 140a.7.7 0 10.3-.9.7.7 0 00-.4 1z" fill="#7740a4"/><path data-name="Path 194" d="M142.5 132.4a.7.7 0 10.3-1 .7.7 0 00-.3 1z" fill="#7740a4"/><path data-name="Path 195" d="M126 124.7a.7.7 0 10.3-1 .7.7 0 00-.3 1z" fill="#7740a4"/><path data-name="Path 196" d="M109.6 117a.7.7 0 10.3-1 .7.7 0 00-.3 1z" fill="#7740a4"/><path data-name="Path 197" d="M93 109.4a.7.7 0 10.4-1 .7.7 0 00-.3 1z" fill="#7740a4"/><path data-name="Path 198" d="M76.6 101.7a.7.7 0 10.3-1 .7.7 0 00-.3 1z" fill="#7740a4"/><path data-name="Path 199" d="M364.2 215.8a.7.7 0 10.3-1 .7.7 0 00-.3 1z" fill="#7740a4"/><path data-name="Path 200" d="M347.7 208a.7.7 0 10.3-.9.7.7 0 00-.3 1z" fill="#7740a4"/><path data-name="Path 201" d="M331.2 200.4a.7.7 0 10.3-1 .7.7 0 00-.3 1z" fill="#7740a4"/><path data-name="Path 202" d="M314.8 192.7a.7.7 0 10.3-1 .7.7 0 00-.3 1z" fill="#7740a4"/><path data-name="Path 203" d="M298.3 185a.7.7 0 10.3-.9.7.7 0 00-.3 1z" fill="#7740a4"/><path data-name="Path 204" d="M281.8 177.4a.7.7 0 10.4-1 .7.7 0 00-.4 1z" fill="#7740a4"/><path data-name="Path 205" d="M265.4 169.7a.7.7 0 10.3-1 .7.7 0 00-.3 1z" fill="#7740a4"/><path data-name="Path 206" d="M249 162a.7.7 0 10.2-1 .7.7 0 00-.3 1z" fill="#7740a4"/><path data-name="Path 207" d="M232.5 154.4a.7.7 0 10.3-1 .7.7 0 00-.3 1z" fill="#7740a4"/><path data-name="Path 208" d="M216 146.7a.7.7 0 10.3-1 .7.7 0 00-.3 1z" fill="#7740a4"/><path data-name="Path 209" d="M199.5 139a.7.7 0 10.3-1 .7.7 0 00-.3 1z" fill="#7740a4"/><path data-name="Path 210" d="M183 131.3a.7.7 0 10.4-1 .7.7 0 00-.3 1z" fill="#7740a4"/><path data-name="Path 211" d="M166.6 123.7a.7.7 0 10.3-1 .7.7 0 00-.3 1z" fill="#7740a4"/><path data-name="Path 212" d="M150.1 116a.7.7 0 10.3-1 .7.7 0 00-.3 1z" fill="#7740a4"/><path data-name="Path 213" d="M133.7 108.3a.7.7 0 10.3-1 .7.7 0 00-.3 1z" fill="#7740a4"/><path data-name="Path 214" d="M117.2 100.6a.7.7 0 10.3-1 .7.7 0 00-.3 1z" fill="#7740a4"/><path data-name="Path 215" d="M100.7 93a.7.7 0 10.4-1 .7.7 0 00-.4 1z" fill="#7740a4"/><path data-name="Path 216" d="M84.3 85.3a.7.7 0 10.3-1 .7.7 0 00-.3 1z" fill="#7740a4"/><path data-name="Path 217" d="M232 185.6a93.6 93.6 0 10-114.4-66.3 93.4 93.4 0 00114.3 66.3z" opacity=".2" fill="url(#a)" transform="translate(-8.2 -1.6)"/></g></svg>