<svg width="1440" height="300" viewBox="0 0 1440 300" fill="none" xmlns="http://www.w3.org/2000/svg"><g clip-path="url(#clip0)"><path d="M0 325V0h1440v325H0z" fill="#0E2A47"/><path d="M671.1 371.3c3.9-18.4 12.1-37.6 24.2-52 12.1-14.4 29-25.9 46.7-29.6 20.6-4.3 41.7-1.4 61.9 3.2 23.5 5.4 56 2.7 79.2-12.1 23.2-14.8 37-33.6 54.1-53.3 25-28.7 56.9-53.3 96.9-50.4 31.7 2.3 58.6 21.6 76.9 46.9 11.5 16 19.9 34.1 26.2 52.7 23.7 70.6 12.4 94 12.4 94l-478.5.6z" fill="#143B63"/><path d="M1509.6 65.5c-62.7 121.2-220 80-196.2 184.6 23.8 104.6-212.2 153.6-278.1-48.9-65.9-202.5 240-51.6 141.3-209.2-98.7-157.6 115.4-175.5 210.6-151.4 95.2 24.1 185.1 103.7 122.4 224.9z" fill="url(#paint0_linear)"/><path d="M714.3-92.6c-4.5 22.4-27.5 75-68.4 111.1C605 54.6 540.6 58 500.6 42.8c-40-15.2-76.1-12.2-99.1 10.8s-18.9 43.4-24.6 73.1c-5.7 29.7-48.2 93.7-113.9 83.8-65.7-9.9-107.1-83-113.8-125.2-6.7-42.2-25.9-70.6-61-55.5-18.3 7.8-67.8 40.1-94.5 6.8C-134.1-123 144.8-386.8 377.8-372.6c210.5 12.8 360.9 158.3 336.5 280z" fill="url(#paint1_linear)"/><path d="M292.6 295c-.3-1.9-15.9-87.8-115-86.4-99.1 1.4-8.3-101.4-91.7-142C2.5 26 61.7-28.5-53.8-18.6c-115.5 9.9-185.5 248.5-92.6 364.5 116.2 144.8 475.8 193.3 439-50.9z" fill="#113255"/><path d="M1472.6 189.3C1451 132.1 1391.9 73.2 1349 81.7c-37.7 7.5-50.2 64.5-96.9 66.1-25.5.9-33.7-15.6-50.3-9.4-35.8 13.4-18 97.8-47.8 110.1-32 13.3-71.2-76.2-120.5-71.9-55.9 4.9-118.9 130.1-88.8 226.8 36.2 116.5 203.8 180.7 333.2 141.3 155.2-47.1 238.9-238.1 194.7-355.4z" fill="url(#paint2_linear)"/><path d="M1241.5 35c-7.7 10.2-5.9 22.9-5.4 26.8.5 3.9 4 24 20.2 30.2 16.2 6.2 33.5-3.8 41.4-18.2 7.9-14.4 7-32.2-5.2-43.6-15-14.2-40.4-9.3-51 4.8z" fill="#164372"/></g><defs><linearGradient id="paint0_linear" x1="1303.86" y1="-164.967" x2="1257.21" y2="353.303" gradientUnits="userSpaceOnUse"><stop stop-color="#143B63"/><stop offset="1" stop-color="#113255"/></linearGradient><linearGradient id="paint1_linear" x1="-38.46" y1="-80.81" x2="716.89" y2="-80.81" gradientUnits="userSpaceOnUse"><stop stop-color="#164372"/><stop offset="1" stop-color="#0E2A47"/></linearGradient><linearGradient id="paint2_linear" x1="1010" y1="232" x2="1194" y2="526" gradientUnits="userSpaceOnUse"><stop offset=".036" stop-color="#194C80"/><stop offset="1" stop-color="#0E2A47"/></linearGradient><clipPath id="clip0"><path fill="#fff" d="M0 0h1440v300H0z"/></clipPath></defs></svg>