<svg width="251" height="233" viewBox="0 0 251 233" fill="none" xmlns="http://www.w3.org/2000/svg">
<path d="M27.9909 66C19.5825 62.6682 11.0253 59.6392 2.84013 55.7016C1.05428 54.8686 -0.136289 50.8552 0.0125324 48.3564C0.0125324 47.2962 4.0307 45.9332 6.33743 45.5546C8.1977 45.3274 10.2812 46.3875 12.2903 46.9176C13.4064 41.9198 14.4482 36.922 15.5643 32C16.7549 32 17.9455 32 19.0616 32C22.7078 42.7528 26.3539 53.4298 30 64.1826L27.9909 66Z" fill="#FBB130"/>
<path d="M184.068 12.3C188.832 11.1 192.765 10.05 196.622 9C196.773 9.6 196.924 10.2 197 10.725C190.42 18.15 183.841 25.575 177.261 33C175.976 32.55 174.69 32.1 173.404 31.65C173.253 22.725 172.799 13.8 173.102 4.95C173.102 3.225 175.9 1.65 177.413 0C179.152 1.725 181.421 3.15 182.555 5.175C183.614 7.125 183.538 9.75 184.068 12.3Z" fill="#FBB130"/>
<path d="M120.941 93C108.137 69.53 96.6058 48.2276 85 27C95.1832 29.5413 122.438 80.2933 120.941 93Z" fill="#FBB130"/>
<path d="M150.345 91C147.495 80.3955 162.978 42.7911 171.914 37C173.3 43.0167 157.586 83.1031 150.345 91Z" fill="#FBB130"/>
<path d="M89.6667 101C75.3704 100.259 38.8519 80.3333 37 71C55.5185 80.4074 73.2963 89.3704 91 98.4074C90.5556 99.2963 90.1111 100.185 89.6667 101Z" fill="#FBB130"/>
<path d="M177 99.8449C194.085 91.3287 211.169 82.8865 229 74C227.956 82.6643 190.802 101.918 177 99.8449Z" fill="#FBB130"/>
<path d="M250.925 70.8595C248.434 71.6791 245.718 73.3183 243.454 72.9458C241.643 72.6477 238.926 69.8164 239.002 68.1772C239.002 66.389 241.416 63.9302 243.378 63.0361C244.284 62.6635 246.623 65.2713 248.283 66.538C249.189 67.9537 250.094 69.4438 251 70.8595H250.925Z" fill="#FBB130"/>
<path d="M1.17783 183.178C2.46817 183.199 3.78917 183.318 5.08083 183.258C15.9966 182.669 26.8971 182.031 37.8129 181.443C38.9433 181.38 40.135 181.514 41.2267 181.841C41.7566 181.997 42.4371 182.807 42.4125 183.329C42.4199 183.867 41.7794 184.558 41.2416 184.892C40.6551 185.241 39.8793 185.326 39.1688 185.364C27.8151 186.092 16.4934 186.837 5.17438 187.419C3.88272 187.479 2.49568 186.461 1.16467 185.967L1.17783 183.178Z" fill="#FBB130"/>
<path d="M22.7392 226.346C23.0097 225.584 23.0576 224.622 23.5828 224.076C30.6763 216.461 37.7546 208.796 45.0708 201.38C46.3837 200.015 48.7123 199.678 50.5485 198.876C49.5349 200.686 48.7912 202.762 47.4437 204.273C41.7576 210.656 36.0243 216.972 30.0836 223.139C28.3276 224.969 25.9843 226.203 23.9109 227.703C23.531 227.256 23.1344 226.842 22.7545 226.395L22.7392 226.346Z" fill="#FBB130"/>
<path d="M82.7514 131.45C82.5368 132.735 82.5476 134.056 82.1244 135.273C79.2111 143.772 76.2978 152.272 73.1759 160.702C72.7208 161.902 71.2879 162.711 70.2876 163.705C70.0182 162.412 69.2037 160.915 69.5922 159.845C72.6067 151.07 75.8133 142.396 79.0518 133.738C79.457 132.636 80.5186 131.838 81.2604 130.871C81.7569 131.091 82.2381 131.262 82.7347 131.482L82.7514 131.45Z" fill="#FBB130"/>
<path d="M34.0502 136.086C40.2319 146.822 47.7524 155.59 53.317 166.576C47.1092 165.366 31.7517 141.496 34.0502 136.086Z" fill="#FBB130"/>
</svg>
